<svg width="25" height="27" viewBox="0 0 25 27" fill="none" xmlns="http://www.w3.org/2000/svg">
<path opacity="0.4" d="M16.325 22C16.325 24.2875 14.45 26.1625 12.1625 26.1625C11.025 26.1625 9.975 25.6875 9.225 24.9375C8.475 24.1875 8 23.1375 8 22" stroke="#5F5386" stroke-width="1.5" stroke-miterlimit="10"/>
<path d="M12.4717 1C7.87171 1 4.14671 4.725 4.14671 9.325V11.95C4.14671 12.8 3.79671 14.075 3.35921 14.8L1.77171 17.45C0.796711 19.0875 1.47171 20.9125 3.27171 21.5125C9.24671 23.5 15.7092 23.5 21.6842 21.5125C23.3717 20.95 24.0967 18.975 23.1842 17.45L21.5967 14.8C21.1592 14.075 20.8092 12.7875 20.8092 11.95V9.325C20.7967 4.75 17.0467 1 12.4717 1Z" stroke="#0A1215" stroke-width="1.5" stroke-miterlimit="10" stroke-linecap="round"/>
<path opacity="0.4" d="M12.5816 7V11.1625" stroke="#5F5386" stroke-width="1.5" stroke-miterlimit="10" stroke-linecap="round"/>
</svg>
